<svg xmlns="http://www.w3.org/2000/svg" width="18" height="17.996" viewBox="0 0 18 17.996">
  <defs>
    <style>
      .cls-1 {
        fill: #707070;
      }
    </style>
  </defs>
  <g id="phone-call" transform="translate(0 -0.053)">
    <g id="Group_11697" data-name="Group 11697" transform="translate(1.405 0.053)">
      <g id="Group_11696" data-name="Group 11696" transform="translate(0 0)">
        <path id="Path_165" data-name="Path 165" class="cls-1" d="M45.832,3.473,42.872.513a1.572,1.572,0,0,0-2.221,0l-.368.368,5.181,5.181.368-.368a1.57,1.57,0,0,0,0-2.221Z" transform="translate(-40.283 -0.054)"/>
      </g>
    </g>
    <g id="Group_11699" data-name="Group 11699" transform="translate(11.992 10.677)">
      <g id="Group_11698" data-name="Group 11698">
        <path id="Path_166" data-name="Path 166" class="cls-1" d="M345.353,304.057l-2.96-2.96a1.608,1.608,0,0,0-2.22,0l-.368.368,5.181,5.181.368-.368A1.572,1.572,0,0,0,345.353,304.057Z" transform="translate(-339.804 -300.653)"/>
      </g>
    </g>
    <g id="Group_11701" data-name="Group 11701" transform="translate(0 1.661)">
      <g id="Group_11700" data-name="Group 11700" transform="translate(0)">
        <path id="Path_167" data-name="Path 167" class="cls-1" d="M11.134,56.575a1.572,1.572,0,0,1-1.793-.3l-3.075-3.1a1.572,1.572,0,0,1-.3-1.793L.712,46.13c-1.5,2.3-.739,8.221,3.316,12.276,4.007,4.007,9.988,4.955,12.349,3.413Z" transform="translate(0 -46.13)"/>
      </g>
    </g>
  </g>
</svg>
