<svg xmlns="http://www.w3.org/2000/svg" width="18" height="18" viewBox="0 0 18 18">
  <defs>
    <style>
      .cls-1 {
        fill: #707070;
      }
    </style>
  </defs>
  <g id="database" transform="translate(-4.1 -2.119)">
    <path id="Path_168" data-name="Path 168" class="cls-1" d="M14.039,29.641q-.47.013-.938.014c-.313,0-.627,0-.941-.014a23.3,23.3,0,0,1-6.265-.879A7.748,7.748,0,0,1,4.1,28v3.042c1.025.962,4.462,1.848,9,1.848s7.975-.887,9-1.848V28a7.768,7.768,0,0,1-1.809.766A23.346,23.346,0,0,1,14.039,29.641Z" transform="translate(0 -17.279)"/>
    <path id="Path_169" data-name="Path 169" class="cls-1" d="M4.1,14.889v2.7c.95.791,3.972,1.526,8.023,1.629l.126,0,.354.007q.247,0,.5,0t.5,0l.354-.007.126,0c4.051-.1,7.073-.838,8.023-1.629v-2.7c-1.752.961-5.456,1.469-9,1.469S5.852,15.85,4.1,14.889Z" transform="translate(0 -8.016)"/>
    <path id="Path_170" data-name="Path 170" class="cls-1" d="M22.051,2.549C21.647,1.266,18.541,0,13.1,0S4.569,1.259,4.153,2.54a.255.255,0,0,0-.053.146v.688c1.021.884,4.434,1.7,9,1.7s7.979-.816,9-1.7V2.686A.242.242,0,0,0,22.051,2.549Z" transform="translate(0 2.119)"/>
    <path id="Path_171" data-name="Path 171" class="cls-1" d="M4.1,41v2.583a.268.268,0,0,0,.042.142c.425,1.542,4.229,2.693,8.958,2.693s8.516-1.146,8.955-2.682a.283.283,0,0,0,.045-.152V41c-1.489.917-4.556,1.638-9,1.638S5.588,41.917,4.1,41Z" transform="translate(0 -26.299)"/>
  </g>
</svg>
